<svg width="37" height="36" viewBox="0 0 37 36" fill="none" xmlns="http://www.w3.org/2000/svg">
<path d="M15.9207 11.8083C17.8846 12.8585 21.2673 14.7923 21.9644 15.9998C22.6616 17.2073 22.645 21.1037 22.5725 23.3296C22.5558 23.8422 22.5475 24.0985 22.4222 24.2663C22.3162 24.4082 22.1422 24.5087 21.9663 24.5295C21.7583 24.5541 21.5322 24.4332 21.08 24.1914C19.116 23.1412 15.7334 21.2073 15.0362 19.9998C14.3391 18.7923 14.3556 14.896 14.4281 12.67C14.4448 12.1574 14.4531 11.9011 14.5784 11.7333C14.6844 11.5914 14.8584 11.4909 15.0343 11.4701C15.2423 11.4455 15.4684 11.5664 15.9207 11.8083Z" stroke="#333333" stroke-width="1.5" stroke-linecap="round" stroke-linejoin="round"/>
<circle cx="18.5" cy="18" r="12" stroke="#333333" stroke-width="1.5" stroke-linecap="round" stroke-linejoin="round"/>
</svg>
