<?xml version="1.0" encoding="UTF-8"?>
<svg id="_레이어_2" data-name="레이어 2" xmlns="http://www.w3.org/2000/svg" xmlns:xlink="http://www.w3.org/1999/xlink" viewBox="0 0 416 416">
  <defs>
    <style>
      .cls-1 {
        fill: url(#_무제_그라디언트_24);
        filter: url(#drop-shadow-1);
      }

      .cls-1, .cls-2, .cls-3, .cls-4, .cls-5, .cls-6, .cls-7 {
        stroke-width: 0px;
      }

      .cls-2 {
        fill: url(#_무제_그라디언트_3-2);
      }

      .cls-3 {
        fill: url(#_무제_그라디언트_3-3);
      }

      .cls-4 {
        fill: url(#_무제_그라디언트_3-6);
      }

      .cls-5 {
        fill: url(#_무제_그라디언트_3-5);
      }

      .cls-6 {
        fill: url(#_무제_그라디언트_3-4);
      }

      .cls-7 {
        fill: url(#_무제_그라디언트_3);
      }
    </style>
    <linearGradient id="_무제_그라디언트_24" data-name="무제 그라디언트 24" x1="201" y1="54.9" x2="201" y2="1212.37" gradientTransform="translate(.3 401.7) rotate(-90)" gradientUnits="userSpaceOnUse">
      <stop offset="0" stop-color="#fff"/>
      <stop offset=".13" stop-color="#fafafa"/>
      <stop offset=".25" stop-color="#eee"/>
      <stop offset=".38" stop-color="#dadada"/>
      <stop offset=".5" stop-color="#bebebe"/>
      <stop offset=".63" stop-color="#9a9a9a"/>
      <stop offset=".75" stop-color="#6d6d6d"/>
      <stop offset=".88" stop-color="#393939"/>
      <stop offset="1" stop-color="#000"/>
    </linearGradient>
    <filter id="drop-shadow-1" filterUnits="userSpaceOnUse">
      <feOffset dx="7" dy="7"/>
      <feGaussianBlur result="blur" stdDeviation="5"/>
      <feFlood flood-color="#000" flood-opacity=".35"/>
      <feComposite in2="blur" operator="in"/>
      <feComposite in="SourceGraphic"/>
    </filter>
    <linearGradient id="_무제_그라디언트_3" data-name="무제 그라디언트 3" x1="22.92" y1="198.38" x2="384.42" y2="338.86" gradientUnits="userSpaceOnUse">
      <stop offset="0" stop-color="#0064ff"/>
      <stop offset="1" stop-color="#024099"/>
    </linearGradient>
    <linearGradient id="_무제_그라디언트_3-2" data-name="무제 그라디언트 3" x1="70.13" y1="76.9" x2="431.63" y2="217.38" xlink:href="#_무제_그라디언트_3"/>
    <linearGradient id="_무제_그라디언트_3-3" data-name="무제 그라디언트 3" x1="59.56" y1="104.11" x2="421.05" y2="244.6" xlink:href="#_무제_그라디언트_3"/>
    <linearGradient id="_무제_그라디언트_3-4" data-name="무제 그라디언트 3" x1="70.13" y1="76.9" x2="431.63" y2="217.38" xlink:href="#_무제_그라디언트_3"/>
    <linearGradient id="_무제_그라디언트_3-5" data-name="무제 그라디언트 3" x1="70.13" y1="76.9" x2="431.63" y2="217.38" xlink:href="#_무제_그라디언트_3"/>
    <linearGradient id="_무제_그라디언트_3-6" data-name="무제 그라디언트 3" x1="70.13" y1="76.9" x2="431.63" y2="217.38" xlink:href="#_무제_그라디언트_3"/>
  </defs>
  <g id="_레이어_1-2" data-name="레이어 1">
    <rect class="cls-1" x="8.37" y="8.07" width="385.26" height="385.26" rx="61.58" ry="61.58" transform="translate(401.7 -.3) rotate(90)"/>
    <g>
      <path class="cls-7" d="m321.16,299.75H80.83l34.95-76.78c2.26.47,4.55.82,6.88,1.05,2.06.2,4.17.31,6.29.31,7.32,0,14.5-1.26,21.25-3.6l-20.19,50.63h141.97l-18.18-50.03c4.14,1.27,8.42,2.13,12.78,2.56,2.09.21,4.28.31,6.48.31,4.99,0,9.95-.58,14.78-1.73l33.31,77.28Z"/>
      <g>
        <g>
          <path class="cls-2" d="m162.39,112.48l1.52,1.12c-.51-.4-1.03-.78-1.52-1.12Z"/>
          <path class="cls-3" d="m330.04,164.62c-1.5,15.24-8.84,28.99-20.68,38.71-7.27,5.97-15.7,9.98-24.66,11.83-3.8.79-7.69,1.19-11.62,1.19-1.9,0-3.8-.09-5.72-.28-5.93-.58-11.67-2.07-17.05-4.37-4.92-2.12-9.55-4.93-13.75-8.39l-89.44-66.36-.69-.51-.9-.66c-4.06-2.87-8.78-4.62-13.7-5.1-.95-.1-1.89-.14-2.82-.14-14.51,0-26.98,11.06-28.43,25.79-.75,7.6,1.51,15.03,6.35,20.94,4.85,5.9,11.69,9.56,19.29,10.31.92.09,1.83.13,2.74.13,10.74,0,20.83-6.12,25.67-15.85,2.51-5.05,7.6-7.97,12.88-7.97,2.15,0,4.33.48,6.4,1.51,7.11,3.54,10,12.17,6.47,19.28-5.7,11.47-15.03,20.44-26.13,25.89-7.77,3.82-16.42,5.91-25.3,5.91-1.84,0-3.68-.09-5.52-.27-1.45-.14-2.88-.34-4.3-.58-13.52-2.35-25.62-9.39-34.42-20.1-9.72-11.83-14.24-26.75-12.74-41.99,2.9-29.58,27.91-51.75,57.04-51.75,1.86,0,3.75.1,5.65.28,9.72.97,19.04,4.38,27.01,9.92.17.1.32.22.49.33.05.03.1.07.15.1.02,0,.03.03.05.03s.03.03.04.03l1.52,1.12.03.03.04.03.21.17,89.52,66.41c.36.25.7.52,1.04.81.92.77,1.89,1.47,2.9,2.11,3.75,2.39,8.01,3.86,12.51,4.3.95.1,1.91.14,2.85.14,6.6,0,12.93-2.26,18.09-6.49,5.9-4.85,9.56-11.7,10.31-19.3,1.54-15.69-9.96-29.71-25.65-31.25-.94-.1-1.88-.14-2.82-.14-10.25,0-19.81,5.52-24.91,14.58-2.64,4.7-7.52,7.34-12.55,7.34-2.39,0-4.81-.59-7.03-1.85-6.92-3.89-9.38-12.65-5.49-19.58,10.22-18.17,29.43-29.25,49.99-29.25,1.86,0,3.74.1,5.63.28,31.48,3.1,54.56,31.22,51.46,62.69Z"/>
          <path class="cls-6" d="m162.39,112.48l1.52,1.12c-.51-.4-1.03-.78-1.52-1.12Z"/>
        </g>
        <g>
          <path class="cls-5" d="m163.91,113.61l-1.52-1.12c.49.34,1,.72,1.52,1.12Z"/>
          <path class="cls-4" d="m162.39,112.48l1.52,1.12c-.51-.4-1.03-.78-1.52-1.12Zm0,0l1.52,1.12c-.51-.4-1.03-.78-1.52-1.12Zm1.52,1.12c-.51-.4-1.03-.78-1.52-1.12"/>
        </g>
      </g>
    </g>
  </g>
</svg>