<?xml version="1.0" encoding="UTF-8"?>
<svg id="_레이어_2" data-name="레이어 2" xmlns="http://www.w3.org/2000/svg" viewBox="0 0 487.98 373.77">
  <defs>
    <style>
      .cls-1 {
        fill: #fff;
        stroke-width: 0px;
      }
    </style>
  </defs>
  <g id="_레이어_1-2" data-name="레이어 1">
    <g>
      <path class="cls-1" d="m470.71,373.77H17.25l65.95-144.87c4.26.89,8.58,1.55,12.97,1.97,3.88.38,7.88.58,11.87.58,13.81,0,27.36-2.37,40.1-6.79l-38.1,95.53h267.86l-34.3-94.39c7.81,2.4,15.88,4.01,24.12,4.83,3.95.39,8.07.59,12.23.59,9.42,0,18.78-1.1,27.89-3.26l62.86,145.81Z"/>
      <g>
        <g>
          <path class="cls-1" d="m171.13,20.44l2.86,2.12c-.97-.76-1.94-1.48-2.86-2.12Z"/>
          <path class="cls-1" d="m487.45,118.81c-2.83,28.76-16.69,54.7-39.02,73.04-13.71,11.26-29.63,18.83-46.53,22.33-7.17,1.5-14.5,2.25-21.93,2.25-3.58,0-7.17-.16-10.79-.53-11.2-1.1-22.02-3.9-32.16-8.25-9.29-4-18.02-9.31-25.95-15.83l-168.75-125.21-1.3-.95-1.69-1.25c-7.66-5.41-16.56-8.71-25.85-9.62-1.79-.18-3.57-.26-5.33-.26-27.38,0-50.91,20.86-53.63,48.67-1.41,14.34,2.84,28.36,11.99,39.51,9.14,11.13,22.07,18.04,36.4,19.45,1.73.16,3.45.25,5.16.25,20.27,0,39.3-11.54,48.44-29.91,4.74-9.54,14.34-15.04,24.3-15.04,4.06,0,8.17.9,12.07,2.84,13.42,6.68,18.88,22.95,12.2,36.37-10.75,21.64-28.36,38.57-49.31,48.85-14.67,7.2-30.98,11.15-47.73,11.15-3.47,0-6.94-.16-10.42-.51-2.73-.26-5.44-.64-8.11-1.1-25.52-4.44-48.34-17.71-64.95-37.93C6.24,154.79-2.3,126.64.53,97.88,6.01,42.08,53.2.25,108.15.25c3.52,0,7.07.18,10.65.53,18.33,1.83,35.93,8.27,50.95,18.71.31.2.61.41.92.62.1.07.2.13.28.2.03.02.07.05.1.07s.05.05.08.07l2.86,2.12.07.05.08.05.39.31,168.91,125.31c.67.48,1.32.99,1.96,1.53,1.74,1.45,3.57,2.78,5.48,3.98,7.07,4.51,15.11,7.28,23.61,8.12,1.79.18,3.6.26,5.38.26,12.45,0,24.4-4.26,34.13-12.25,11.13-9.14,18.04-22.08,19.45-36.42,2.91-29.6-18.79-56.05-48.41-58.96-1.78-.18-3.55-.26-5.33-.26-19.34,0-37.37,10.42-46.99,27.51-4.98,8.86-14.19,13.84-23.68,13.84-4.51,0-9.08-1.12-13.27-3.49-13.05-7.33-17.69-23.87-10.36-36.95C304.71,20.91,340.95,0,379.74,0c3.52,0,7.05.18,10.62.53,59.39,5.85,102.94,58.91,97.09,118.28Z"/>
          <path class="cls-1" d="m171.13,20.44l2.86,2.12c-.97-.76-1.94-1.48-2.86-2.12Z"/>
        </g>
        <g>
          <path class="cls-1" d="m174,22.56l-2.86-2.12c.92.64,1.89,1.36,2.86,2.12Z"/>
          <path class="cls-1" d="m171.13,20.44l2.86,2.12c-.97-.76-1.94-1.48-2.86-2.12Zm0,0l2.86,2.12c-.97-.76-1.94-1.48-2.86-2.12Zm2.86,2.12c-.97-.76-1.94-1.48-2.86-2.12"/>
        </g>
      </g>
    </g>
  </g>
</svg>