<svg width="24" height="31" viewBox="0 0 24 31" fill="none" xmlns="http://www.w3.org/2000/svg">
<g filter="url(#filter0_d_1_840)">
<path fill-rule="evenodd" clip-rule="evenodd" d="M12.398 19.804C13.881 19.0348 19 16.0163 19 11C19 7.13401 15.866 4 12 4C8.13401 4 5 7.13401 5 11C5 16.0163 10.119 19.0348 11.602 19.804C11.8548 19.9351 12.1452 19.9351 12.398 19.804ZM12 14C13.6569 14 15 12.6569 15 11C15 9.34315 13.6569 8 12 8C10.3431 8 9 9.34315 9 11C9 12.6569 10.3431 14 12 14Z" fill="#0164FF"/>
</g>
<defs>
<filter id="filter0_d_1_840" x="-2" y="0" width="30" height="35" filterUnits="userSpaceOnUse" color-interpolation-filters="sRGB">
<feFlood flood-opacity="0" result="BackgroundImageFix"/>
<feColorMatrix in="SourceAlpha" type="matrix" values="0 0 0 0 0 0 0 0 0 0 0 0 0 0 0 0 0 0 127 0" result="hardAlpha"/>
<feOffset dx="1" dy="8"/>
<feGaussianBlur stdDeviation="1.5"/>
<feComposite in2="hardAlpha" operator="out"/>
<feColorMatrix type="matrix" values="0 0 0 0 0 0 0 0 0 0 0 0 0 0 0 0 0 0 0.13 0"/>
<feBlend mode="normal" in2="BackgroundImageFix" result="effect1_dropShadow_1_840"/>
<feBlend mode="normal" in="SourceGraphic" in2="effect1_dropShadow_1_840" result="shape"/>
</filter>
</defs>
</svg>
