<svg width="36" height="36" viewBox="0 0 36 36" fill="none" xmlns="http://www.w3.org/2000/svg">
<rect x="9" y="19.5" width="6" height="6" rx="3" transform="rotate(90 9 19.5)" stroke="#333333" stroke-width="1.5"/>
<rect x="25.5" y="18" width="6" height="6" rx="3" transform="rotate(-90 25.5 18)" stroke="#333333" stroke-width="1.5"/>
<path d="M27 16.5L24.75 18.75C23.2244 20.2756 22.4616 21.0384 21.5442 21.2076C21.1844 21.2739 20.8156 21.2739 20.4558 21.2076C19.5384 21.0384 18.7756 20.2756 17.25 18.75V18.75C15.7244 17.2244 14.9616 16.4616 14.0442 16.2924C13.6844 16.2261 13.3156 16.2261 12.9558 16.2924C12.0384 16.4616 11.2756 17.2244 9.75 18.75L7.5 21" stroke="#333333" stroke-width="1.5"/>
</svg>
