<svg width="37" height="36" viewBox="0 0 37 36" fill="none" xmlns="http://www.w3.org/2000/svg">
<path d="M12.5 12L17 16.5M12.5 12H9.5L8.5 9L9.5 8L12.5 9V12ZM25.759 8.74101L23.1314 11.3686C22.7354 11.7646 22.5373 11.9627 22.4632 12.191C22.3979 12.3918 22.3979 12.6082 22.4632 12.809C22.5373 13.0373 22.7354 13.2354 23.1314 13.6314L23.3686 13.8686C23.7646 14.2646 23.9627 14.4627 24.191 14.5368C24.3918 14.6021 24.6082 14.6021 24.809 14.5368C25.0373 14.4627 25.2354 14.2646 25.6314 13.8686L28.0893 11.4107C28.354 12.0549 28.5 12.7604 28.5 13.5C28.5 16.5376 26.0376 19 23 19C22.6338 19 22.2759 18.9642 21.9298 18.8959C21.4436 18.8001 21.2005 18.7521 21.0532 18.7668C20.8965 18.7824 20.8193 18.8059 20.6805 18.8802C20.5499 18.9501 20.419 19.081 20.157 19.343L13 26.5C12.1716 27.3284 10.8284 27.3284 10 26.5C9.17157 25.6716 9.17157 24.3284 10 23.5L17.157 16.343C17.419 16.081 17.5499 15.9501 17.6198 15.8195C17.6941 15.6807 17.7176 15.6035 17.7332 15.4468C17.7479 15.2995 17.6999 15.0564 17.6041 14.5702C17.5358 14.2241 17.5 13.8662 17.5 13.5C17.5 10.4624 19.9624 8 23 8C24.0055 8 24.948 8.26982 25.759 8.74101ZM18.5001 20.9999L24 26.4999C24.8284 27.3283 26.1716 27.3283 27 26.4999C27.8284 25.6715 27.8284 24.3283 27 23.4999L22.4753 18.9753C22.155 18.945 21.8427 18.8872 21.5408 18.8043C21.1517 18.6975 20.7249 18.7751 20.4397 19.0603L18.5001 20.9999Z" stroke="#333333" stroke-width="1.5" stroke-linecap="round" stroke-linejoin="round"/>
</svg>
