<svg width="59" height="32" viewBox="0 0 59 32" fill="none" xmlns="http://www.w3.org/2000/svg">
<path d="M31.2353 16C31.2353 24.8366 24.243 32 15.6176 32C6.99226 32 0 24.8366 0 16C0 7.16344 6.99226 0 15.6176 0C24.243 0 31.2353 7.16344 31.2353 16Z" fill="white"/>
<path d="M58.9999 16C58.9999 24.8366 52.0077 32 43.3823 32C34.7569 32 27.7646 24.8366 27.7646 16C27.7646 7.16344 34.7569 0 43.3823 0C52.0077 0 58.9999 7.16344 58.9999 16Z" fill="white"/>
<rect x="15.6177" width="27.7647" height="32" fill="white"/>
<path d="M29.5001 16.0001C29.5001 23.8548 23.2847 30.2223 15.6177 30.2223C7.95069 30.2223 1.73535 23.8548 1.73535 16.0001C1.73535 8.14534 7.95069 1.77783 15.6177 1.77783C23.2847 1.77783 29.5001 8.14534 29.5001 16.0001Z" fill="#E84747" fill-opacity="0.94"/>
<path d="M40.017 16.3636C40.017 17.1307 39.8786 17.7936 39.6016 18.3523C39.3246 18.911 38.9446 19.3419 38.4616 19.6449C37.9787 19.9479 37.4271 20.0994 36.8068 20.0994C36.1866 20.0994 35.6349 19.9479 35.152 19.6449C34.669 19.3419 34.2891 18.911 34.0121 18.3523C33.7351 17.7936 33.5966 17.1307 33.5966 16.3636C33.5966 15.5966 33.7351 14.9337 34.0121 14.375C34.2891 13.8163 34.669 13.3854 35.152 13.0824C35.6349 12.7794 36.1866 12.6278 36.8068 12.6278C37.4271 12.6278 37.9787 12.7794 38.4616 13.0824C38.9446 13.3854 39.3246 13.8163 39.6016 14.375C39.8786 14.9337 40.017 15.5966 40.017 16.3636ZM39.1648 16.3636C39.1648 15.7339 39.0594 15.2024 38.8487 14.7692C38.6404 14.3359 38.3575 14.008 38 13.7855C37.6449 13.563 37.2472 13.4517 36.8068 13.4517C36.3665 13.4517 35.9676 13.563 35.6101 13.7855C35.255 14.008 34.9721 14.3359 34.7614 14.7692C34.553 15.2024 34.4489 15.7339 34.4489 16.3636C34.4489 16.9934 34.553 17.5249 34.7614 17.9581C34.9721 18.3913 35.255 18.7192 35.6101 18.9418C35.9676 19.1643 36.3665 19.2756 36.8068 19.2756C37.2472 19.2756 37.6449 19.1643 38 18.9418C38.3575 18.7192 38.6404 18.3913 38.8487 17.9581C39.0594 17.5249 39.1648 16.9934 39.1648 16.3636ZM41.4979 20V12.7273H45.8587V13.5085H42.3786V15.9659H45.532V16.7472H42.3786V20H41.4979ZM47.367 20V12.7273H51.7278V13.5085H48.2477V15.9659H51.4011V16.7472H48.2477V20H47.367Z" fill="#E95252"/>
</svg>
