<svg width="59" height="32" viewBox="0 0 59 32" fill="none" xmlns="http://www.w3.org/2000/svg">
<path d="M31.2346 16C31.2346 24.8366 24.2425 32 15.6173 32C6.9921 32 0 24.8366 0 16C0 7.16344 6.9921 0 15.6173 0C24.2425 0 31.2346 7.16344 31.2346 16Z" fill="white"/>
<path d="M59.0001 16C59.0001 24.8366 52.008 32 43.3828 32C34.7576 32 27.7655 24.8366 27.7655 16C27.7655 7.16344 34.7576 0 43.3828 0C52.008 0 59.0001 7.16344 59.0001 16Z" fill="white"/>
<rect x="15.6167" width="27.7641" height="32" fill="white"/>
<path d="M57.2631 16.0009C57.2631 23.8556 51.0479 30.2231 43.3811 30.2231C35.7142 30.2231 29.499 23.8556 29.499 16.0009C29.499 8.14619 35.7142 1.77869 43.3811 1.77869C51.0479 1.77869 57.2631 8.14619 57.2631 16.0009Z" fill="#0064FF" fill-opacity="0.79"/>
<path d="M15.017 16.3636C15.017 17.1307 14.8786 17.7936 14.6016 18.3523C14.3246 18.911 13.9446 19.3419 13.4616 19.6449C12.9787 19.9479 12.4271 20.0994 11.8068 20.0994C11.1866 20.0994 10.6349 19.9479 10.152 19.6449C9.66903 19.3419 9.28906 18.911 9.01207 18.3523C8.73509 17.7936 8.59659 17.1307 8.59659 16.3636C8.59659 15.5966 8.73509 14.9337 9.01207 14.375C9.28906 13.8163 9.66903 13.3854 10.152 13.0824C10.6349 12.7794 11.1866 12.6278 11.8068 12.6278C12.4271 12.6278 12.9787 12.7794 13.4616 13.0824C13.9446 13.3854 14.3246 13.8163 14.6016 14.375C14.8786 14.9337 15.017 15.5966 15.017 16.3636ZM14.1648 16.3636C14.1648 15.7339 14.0594 15.2024 13.8487 14.7692C13.6404 14.3359 13.3575 14.008 13 13.7855C12.6449 13.563 12.2472 13.4517 11.8068 13.4517C11.3665 13.4517 10.9676 13.563 10.6101 13.7855C10.255 14.008 9.97206 14.3359 9.76136 14.7692C9.55303 15.2024 9.44886 15.7339 9.44886 16.3636C9.44886 16.9934 9.55303 17.5249 9.76136 17.9581C9.97206 18.3913 10.255 18.7192 10.6101 18.9418C10.9676 19.1643 11.3665 19.2756 11.8068 19.2756C12.2472 19.2756 12.6449 19.1643 13 18.9418C13.3575 18.7192 13.6404 18.3913 13.8487 17.9581C14.0594 17.5249 14.1648 16.9934 14.1648 16.3636ZM22.2649 12.7273V20H21.4126L17.4496 14.2898H17.3786V20H16.4979V12.7273H17.3501L21.3274 18.4517H21.3984V12.7273H22.2649Z" fill="#0F6DFF"/>
</svg>
