<svg width="36" height="36" viewBox="0 0 36 36" fill="none" xmlns="http://www.w3.org/2000/svg">
<path d="M9.97955 26.9261C10.7095 25.2062 12.4139 24 14.4 24H21.6C23.5861 24 25.2905 25.2062 26.0204 26.9261M22.8 15C22.8 17.651 20.651 19.8 18 19.8C15.349 19.8 13.2 17.651 13.2 15C13.2 12.349 15.349 10.2 18 10.2C20.651 10.2 22.8 12.349 22.8 15ZM30 18C30 24.6274 24.6274 30 18 30C11.3726 30 6 24.6274 6 18C6 11.3726 11.3726 6 18 6C24.6274 6 30 11.3726 30 18Z" stroke="current" stroke-width="1.5"/>
</svg>
